<svg id="Layer_1" data-name="Layer 1" xmlns="http://www.w3.org/2000/svg" viewBox="0 0 281.85 57.09"><defs><style>.cls-1{fill:#3e485b;}.cls-2{fill:#d1d3d4;}.cls-3{fill:#939598;}.cls-4{fill:#fff;}</style></defs><title>sanbox-logo</title><path class="cls-1" d="M20.05,50.39a23.78,23.78,0,0,1-9.57-1.85,17.84,17.84,0,0,1-7-5.3A17.1,17.1,0,0,1,0,35.05l8.41-1.28a11.14,11.14,0,0,0,4.42,6.66,13.09,13.09,0,0,0,7.72,2.36A14.53,14.53,0,0,0,25.43,42a9,9,0,0,0,3.71-2.35,5.39,5.39,0,0,0,1.44-3.8A5.14,5.14,0,0,0,30.24,34a4.69,4.69,0,0,0-1-1.53,6.89,6.89,0,0,0-1.69-1.23,12.44,12.44,0,0,0-2.37-1l-12.51-3.7A29.93,29.93,0,0,1,9.2,25.28a14.16,14.16,0,0,1-3.53-2.19,10.8,10.8,0,0,1-2.73-3.56,12.29,12.29,0,0,1-1.06-5.37A12.77,12.77,0,0,1,4.25,6.31a14.27,14.27,0,0,1,6.4-4.76A23.63,23.63,0,0,1,19.58,0a22.82,22.82,0,0,1,8.88,1.7A17,17,0,0,1,35,6.53a18.39,18.39,0,0,1,3.7,7.63L30,15.68a9.67,9.67,0,0,0-2.07-4.36,10,10,0,0,0-3.73-2.74A12.69,12.69,0,0,0,15,8.29a8.28,8.28,0,0,0-3.33,2.17,4.8,4.8,0,0,0-1.26,3.3,4,4,0,0,0,1.08,2.91,7.77,7.77,0,0,0,2.67,1.78,25.84,25.84,0,0,0,3.25,1.09L26.07,22c1.19.31,2.52.73,4,1.27a17.91,17.91,0,0,1,4.27,2.26,11.32,11.32,0,0,1,3.38,3.8,12,12,0,0,1,1.33,6,13.55,13.55,0,0,1-1.56,6.62,14,14,0,0,1-4.22,4.72,19.25,19.25,0,0,1-6.07,2.83A26.71,26.71,0,0,1,20.05,50.39Z"/><path class="cls-1" d="M56.51,50.39a13.66,13.66,0,0,1-6.66-1.5,10.1,10.1,0,0,1-4.12-4,11,11,0,0,1-1.4-5.47,12.23,12.23,0,0,1,.88-4.73,9.46,9.46,0,0,1,2.69-3.64,14.52,14.52,0,0,1,4.71-2.5,44.57,44.57,0,0,1,5.13-1.28c2-.38,4.09-.74,6.39-1.06s4.7-.68,7.21-1.06l-2.89,1.65c0-2.51-.53-4.36-1.68-5.55S63.7,19.48,61,19.48a10.54,10.54,0,0,0-4.75,1.14,6.34,6.34,0,0,0-3.19,3.94l-7.4-2.32a13.71,13.71,0,0,1,5.12-7.41Q54.57,12,61,12a21.51,21.51,0,0,1,8.52,1.58A10.59,10.59,0,0,1,75,18.8a11,11,0,0,1,1.17,3.92,42.05,42.05,0,0,1,.21,4.36v22.3h-7.1V41.51l1.18,1.28a16.32,16.32,0,0,1-5.74,5.77A16.62,16.62,0,0,1,56.51,50.39Zm1.61-6.46a10.59,10.59,0,0,0,4.72-1A9.6,9.6,0,0,0,66,40.57a8.45,8.45,0,0,0,1.56-2.66,10.14,10.14,0,0,0,.72-3.55c.06-1.33.09-2.41.09-3.25l2.49.75q-3.68.57-6.29,1c-1.75.3-3.25.57-4.51.83a30.11,30.11,0,0,0-3.33.86,10.44,10.44,0,0,0-2.39,1.17,5,5,0,0,0-1.49,1.55,3.91,3.91,0,0,0-.53,2A4.18,4.18,0,0,0,53,41.7a4.69,4.69,0,0,0,2,1.63A7.66,7.66,0,0,0,58.12,43.93Z"/><path class="cls-1" d="M85,49.38V13.05h7.23V24.32h1V49.38Zm25.2,0V31.89a33.38,33.38,0,0,0-.24-3.8,13.79,13.79,0,0,0-1.09-4,7.8,7.8,0,0,0-2.56-3.18,7.6,7.6,0,0,0-4.59-1.25,9.54,9.54,0,0,0-3.06.51A6.92,6.92,0,0,0,96,21.88a8.67,8.67,0,0,0-2,3.36,17.12,17.12,0,0,0-.74,5.47l-4.81-2.05a19.27,19.27,0,0,1,1.8-8.41,14.25,14.25,0,0,1,5.3-6A15.58,15.58,0,0,1,104.14,12a14.64,14.64,0,0,1,6.66,1.34A11.79,11.79,0,0,1,115,16.79a15.2,15.2,0,0,1,2.29,4.43,22.61,22.61,0,0,1,.95,4.46,33.23,33.23,0,0,1,.22,3.42V49.38Z"/><path class="cls-1" d="M141.17,50.39a15.24,15.24,0,0,1-8.74-2.52A16.75,16.75,0,0,1,126.64,41a22.7,22.7,0,0,1-2-9.78,22.5,22.5,0,0,1,2.07-9.84,16.52,16.52,0,0,1,5.87-6.83A15.89,15.89,0,0,1,141.48,12a14.59,14.59,0,0,1,8.69,2.51,15.56,15.56,0,0,1,5.34,6.85,25.21,25.21,0,0,1,1.81,9.82A25.2,25.2,0,0,1,155.51,41a15.57,15.57,0,0,1-5.42,6.88A15.17,15.17,0,0,1,141.17,50.39Zm1.25-7.27a7.88,7.88,0,0,0,8.19-5.68,19,19,0,0,0,.92-6.22,19,19,0,0,0-.92-6.24,8.68,8.68,0,0,0-2.87-4.18,8.14,8.14,0,0,0-5.05-1.49,8.69,8.69,0,0,0-5.39,1.6,9.29,9.29,0,0,0-3.12,4.3,17.18,17.18,0,0,0-1,6,17.41,17.41,0,0,0,1,6,9.25,9.25,0,0,0,3.05,4.29A8.23,8.23,0,0,0,142.42,43.12Zm9.11,6.26V23.88h-1V.94h8.18V49.38Z"/><path class="cls-1" d="M168.05,49.38V.94h8.17V23.88h-1v25.5Zm17.52,1a15.16,15.16,0,0,1-8.91-2.52A15.48,15.48,0,0,1,171.25,41a25,25,0,0,1-1.82-9.77,25,25,0,0,1,1.82-9.82,15.53,15.53,0,0,1,5.32-6.85,14.64,14.64,0,0,1,8.7-2.51,15.8,15.8,0,0,1,8.93,2.51,16.67,16.67,0,0,1,5.87,6.83,22.36,22.36,0,0,1,2.09,9.84,22.7,22.7,0,0,1-2,9.78,16.75,16.75,0,0,1-5.79,6.87A15.25,15.25,0,0,1,185.57,50.39Zm-1.24-7.27a8.25,8.25,0,0,0,5.21-1.58,9.32,9.32,0,0,0,3.05-4.29,17.41,17.41,0,0,0,1-6,17.18,17.18,0,0,0-1-6,9.31,9.31,0,0,0-3.13-4.3,8.66,8.66,0,0,0-5.38-1.6A8.12,8.12,0,0,0,179,20.8,8.68,8.68,0,0,0,176.14,25a19,19,0,0,0-.93,6.24,19,19,0,0,0,.93,6.22,7.86,7.86,0,0,0,8.19,5.68Z"/><path class="cls-1" d="M245.92,49.38,259.21,31l-13-18h9.56l8.17,11.61,8-11.61h9.55l-13,18,13.36,18.36H272.3l-8.38-12-8.44,12Z"/><path class="cls-1" d="M225.58,5.34l20.34,12.94V44.15L225.58,57.09,205.24,44.15V18.28ZM240,22l-14.43-9.17L211.15,22V40.39l14.43,9.17L240,40.39Z"/><polygon class="cls-2" points="225.58 49.56 225.58 31.21 211.15 22.04 211.15 40.39 225.58 49.56"/><polygon class="cls-3" points="225.58 49.56 225.58 31.21 240.01 22.04 240.01 40.39 225.58 49.56"/><polygon class="cls-4" points="211.15 22.04 225.58 12.87 240.01 22.04 225.58 31.21 211.15 22.04"/></svg>